<?xml version="1.0" encoding="UTF-8"?>
<svg width="1876px" height="978px" viewBox="0 0 1876 978" version="1.1" xmlns="http://www.w3.org/2000/svg" xmlns:xlink="http://www.w3.org/1999/xlink">
    <title>data-architecture</title>
    <defs>
        <filter id="filter-1">
            <feColorMatrix in="SourceGraphic" type="matrix" values="0 0 0 0 1.000000 0 0 0 0 1.000000 0 0 0 0 1.000000 0 0 0 1.000000 0"></feColorMatrix>
        </filter>
    </defs>
    <g id="data-architecture" stroke="none" stroke-width="1" fill="none" fill-rule="evenodd">
        <rect fill="#FFFFFF" x="0" y="0" width="1876" height="978"></rect>
        <rect id="Rectangle" fill="#F4E7D5" x="532" y="124" width="244" height="719" rx="18"></rect>
        <rect id="Rectangle" fill="#13374F" opacity="0.25155785" x="66" y="124" width="244" height="719" rx="18"></rect>
        <rect id="Rectangle" fill="#50907C" opacity="0.25155785" x="1604.5" y="124" width="244" height="719" rx="18"></rect>
        <circle id="Oval" fill="#13374F" cx="186.5" cy="312.5" r="71.5"></circle>
        <circle id="Oval" fill="#13374F" cx="186.5" cy="506.5" r="71.5"></circle>
        <circle id="Oval" fill="#13374F" cx="186.5" cy="702.5" r="71.5"></circle>
        <path d="M229,298.21224 C229,309.88151 220.625839,319.663411 214.327011,326.00651 C213.669571,326.66862 212.801514,327 211.933456,327 C211.081802,327 210.230804,326.68099 209.575989,326.041016 C208.254547,324.748698 208.2388,322.638021 209.541214,321.327474 C218.232941,312.57487 222.28125,305.229818 222.28125,298.21224 C222.28125,287.88151 215.511978,280.666667 205.820312,280.666667 C199.518204,280.666667 194.864944,283.01888 191.989136,287.658854 C189.707123,291.341797 189.351501,295.17513 189.348221,295.213542 C189.213715,296.94987 187.754486,298.283203 185.999344,298.283203 C184.244202,298.283203 182.784973,296.934896 182.650467,295.198568 C182.648499,295.17513 182.292877,291.341797 180.010208,287.658854 C177.135055,283.01888 172.481796,280.666667 166.179688,280.666667 C156.488022,280.666667 149.71875,287.88151 149.71875,298.21224 C149.71875,302.871094 151.500137,307.661458 155.15805,312.833333 L163.131973,312.833333 L168.705124,301.534505 C169.27858,300.372396 170.482575,299.639974 171.782364,299.667318 C173.086746,299.690104 174.259247,300.460286 174.79071,301.641927 L181.654465,316.907552 L186.025589,308.329427 C186.59314,307.216146 187.739395,306.510417 188.996536,306.5 L189.024094,306.5 C190.270737,306.5 191.415024,307.184896 191.996353,308.28125 L194.410904,312.833333 L201.957031,312.833333 C203.812561,312.833333 205.316406,314.325521 205.316406,316.166667 C205.316406,318.007812 203.812561,319.5 201.957031,319.5 L192.382812,319.5 C191.135513,319.5 189.991226,318.814453 189.409897,317.719401 L189.083145,317.102865 L184.462692,326.170573 C183.890549,327.294271 182.729858,328 181.4655,328 C181.437943,328 181.411041,327.999349 181.383484,327.998698 C180.087631,327.968099 178.925629,327.199219 178.39679,326.02474 L171.581589,310.867839 L168.245178,317.632161 C167.681564,318.775391 166.510376,319.5 165.227646,319.5 L146.359375,319.5 C144.503845,319.5 143,318.007812 143,316.166667 C143,314.325521 144.503845,312.833333 146.359375,312.833333 L147.211029,312.833333 C144.38443,307.872396 143,303.052083 143,298.21224 C143,291.132812 145.342377,285.037109 149.774521,280.583984 C153.999329,276.337891 159.825745,274 166.179688,274 C177.28859,274 183.032333,279.671875 185.894363,284.429688 C185.929794,284.488281 185.965225,284.547526 186,284.606771 C186.034775,284.547526 186.070206,284.488281 186.105637,284.429688 C188.967667,279.671875 194.71141,274 205.820312,274 C212.174255,274 218.000671,276.337891 222.225479,280.583984 C226.657623,285.037109 229,291.132812 229,298.21224 L229,298.21224 Z M197.489808,332.884163 L197.413946,332.950886 C193.194206,336.649158 189.160554,340.188072 185.90238,343.654433 C182.644206,340.187425 178.609905,336.649158 174.390165,332.950238 C172.142835,330.980936 169.818995,328.944262 167.566478,326.875199 C166.216525,325.635316 164.11638,325.723417 162.876005,327.07213 C161.634981,328.420195 161.723162,330.518409 163.073116,331.758292 C165.382691,333.879827 167.735709,335.942412 170.011568,337.936978 C175.211679,342.494877 180.123903,346.800135 183.316589,350.762708 C183.319831,350.767243 183.323722,350.771129 183.326963,350.775664 C183.341877,350.793802 183.357438,350.811293 183.372999,350.828783 C183.432652,350.899393 183.494249,350.967412 183.559088,351.032191 C183.562978,351.036078 183.56622,351.039965 183.569462,351.043204 C183.647918,351.12094 183.729615,351.192845 183.813907,351.260864 C183.8165,351.262807 183.818445,351.264751 183.821039,351.266694 C183.822336,351.268637 183.824281,351.269285 183.825578,351.270581 C183.898846,351.32953 183.974059,351.384593 184.051867,351.436417 C184.056405,351.439656 184.061593,351.442895 184.066131,351.446134 C184.1394,351.494718 184.214613,351.540712 184.291124,351.582819 C184.296311,351.586058 184.301498,351.589297 184.307333,351.591888 C184.38125,351.632699 184.456464,351.669624 184.533623,351.704605 C184.552426,351.713026 184.571878,351.7208 184.590681,351.729221 C184.652927,351.755781 184.715821,351.781045 184.779363,351.803718 C184.796222,351.809548 184.81308,351.816673 184.82929,351.822504 C184.900613,351.846472 184.972585,351.867202 185.045205,351.886636 C185.073734,351.894409 185.101615,351.900887 185.130144,351.908013 C185.189148,351.922264 185.2488,351.934573 185.3091,351.945585 C185.332442,351.949472 185.355785,351.954006 185.379127,351.957893 C185.449153,351.968906 185.519828,351.977327 185.589855,351.984453 C185.615142,351.986396 185.639781,351.98834 185.665068,351.990283 C185.74093,351.996113 185.816792,351.999352 185.892654,351.999352 C185.895247,351.999352 185.898489,352 185.901083,352 L185.903028,352 L185.904973,352 C185.907567,352 185.910161,351.999352 185.912754,351.999352 C185.989265,351.999352 186.064478,351.995465 186.14034,351.990283 C186.165627,351.98834 186.190915,351.986396 186.215554,351.984453 C186.286228,351.977327 186.355606,351.969554 186.425633,351.957893 C186.449623,351.954654 186.473614,351.949472 186.498253,351.945585 C186.557257,351.934573 186.61626,351.922264 186.675264,351.908013 C186.703793,351.901535 186.732323,351.894409 186.760852,351.886636 C186.832824,351.867202 186.904795,351.846472 186.97547,351.822504 C186.992977,351.816673 187.010483,351.809548 187.02799,351.80307 C187.090236,351.781045 187.152481,351.756428 187.21343,351.729869 C187.23353,351.721447 187.253631,351.713026 187.273082,351.703957 C187.348944,351.669624 187.424158,351.632699 187.497426,351.592536 C187.50391,351.589297 187.510394,351.58541 187.516878,351.581523 C187.592092,351.540064 187.66536,351.494718 187.73798,351.446781 C187.743816,351.443542 187.749651,351.439656 187.754838,351.435769 C187.831997,351.384593 187.906562,351.32953 187.979831,351.270581 C187.981127,351.269285 187.983072,351.268637 187.985018,351.266694 C187.987611,351.264751 187.989556,351.262807 187.99215,351.260216 C188.075793,351.192197 188.15749,351.120292 188.235946,351.043204 C188.239836,351.039965 188.243078,351.035431 188.246968,351.031544 C188.311159,350.967412 188.373405,350.899393 188.433057,350.828783 C188.44797,350.811293 188.463532,350.793802 188.478445,350.775664 C188.481687,350.771129 188.485577,350.767243 188.489467,350.762708 C191.681505,346.800135 196.593081,342.494877 201.793192,337.937626 L201.869702,337.870255 C203.247537,336.662762 203.384996,334.567139 202.175743,333.189923 C200.965843,331.813355 198.868292,331.676022 197.489808,332.884163 L197.489808,332.884163 Z" id="cardiology" stroke="#13374F" stroke-width="2" fill="#FFFFFF" fill-rule="nonzero"></path>
        <path d="M217.836361,512.030075 L207.480941,506 L217.835768,499.969925 C219.7665,498.845795 221.145085,497.034927 221.716824,494.871765 C222.289156,492.708008 221.986366,490.450821 220.864856,488.515579 L218.421162,484.300537 C217.299651,482.365295 215.493004,480.984085 213.334882,480.410416 C211.176761,479.837341 208.924241,480.140839 206.994103,481.264969 L196.791265,487.206375 L196.791265,475.378906 C196.791265,470.758606 193.041418,467 188.431885,467 L183.568245,467 C178.958712,467 175.208865,470.758606 175.208865,475.378906 L175.208865,487.206375 L165.006028,481.264969 C163.075296,480.140839 160.823369,479.837341 158.664654,480.410416 C156.506533,480.984085 154.699885,482.365295 153.578375,484.300537 L151.135275,488.515579 C150.01317,490.450821 149.71038,492.708008 150.282713,494.871765 C150.855045,497.034927 152.233037,498.845795 154.163769,499.969925 L164.518595,506 L154.163769,512.030075 C152.233037,513.154205 150.855045,514.965073 150.282713,517.12883 C149.710974,519.291992 150.013764,521.549179 151.135275,523.484421 L153.578375,527.699463 C155.893828,531.694321 161.020479,533.055893 165.006028,530.735031 L175.208865,524.793625 L175.208865,536.621094 C175.208865,541.241394 178.958712,545 183.568245,545 L188.431885,545 C193.041418,545 196.791265,541.241394 196.791265,536.621094 L196.791265,519.49968 C196.791265,517.816757 195.430491,516.452805 193.75149,516.452805 C192.07249,516.452805 190.711716,517.816757 190.711716,519.49968 L190.711716,536.621094 C190.711716,537.880905 189.68876,538.90625 188.431885,538.90625 L183.568245,538.90625 C182.31137,538.90625 181.288414,537.880905 181.288414,536.621094 L181.288414,519.49968 C181.288414,518.40947 180.707176,517.402573 179.764965,516.858658 C178.82216,516.315338 177.662058,516.317718 176.721628,516.865204 L161.952004,525.46608 C160.864928,526.099258 159.466751,525.727921 158.835641,524.638306 L156.391948,520.422668 C156.086189,519.894821 156.003664,519.279495 156.159808,518.689758 C156.315953,518.099426 156.691769,517.605499 157.217792,517.299027 L172.097252,508.634476 C173.033526,508.089371 173.610015,507.085449 173.610015,506 C173.610015,504.913956 173.033526,503.910629 172.097252,503.365524 L157.217792,494.700973 C156.691175,494.393906 156.315359,493.900574 156.159215,493.310242 C156.003664,492.720505 156.086189,492.104584 156.391948,491.576736 L158.835048,487.361694 C159.1414,486.833847 159.633582,486.457153 160.222538,486.300644 C160.810901,486.144134 161.425387,486.227448 161.952004,486.53392 L176.721628,495.134796 C177.662058,495.682282 178.82216,495.684662 179.764965,495.141342 C180.707176,494.597427 181.288414,493.59053 181.288414,492.50032 L181.288414,475.378906 C181.288414,474.119095 182.310776,473.09375 183.568245,473.09375 L188.431885,473.09375 C189.68876,473.09375 190.711716,474.119095 190.711716,475.378906 L190.711716,492.50032 C190.711716,493.59053 191.29236,494.597427 192.235165,495.141342 C193.177377,495.684662 194.338072,495.682282 195.277909,495.134796 L210.048126,486.53392 C210.574743,486.227448 211.188635,486.144134 211.777592,486.300644 C212.365954,486.457153 212.85873,486.833847 213.164489,487.361694 L215.607589,491.576736 C215.913941,492.104584 215.996466,492.720505 215.840322,493.310242 C215.684177,493.900574 215.308361,494.393906 214.781744,494.700973 L199.902878,503.365524 C198.966604,503.910629 198.390115,504.913956 198.390115,506 C198.390115,507.085449 198.966604,508.089371 199.902878,508.634476 L214.781744,517.299027 C215.308361,517.605499 215.684771,518.099426 215.840322,518.689758 C215.996466,519.279495 215.913941,519.894821 215.607589,520.422668 L213.164489,524.638306 C212.533379,525.727326 211.134608,526.098663 210.048126,525.46608 C208.596515,524.621048 206.736434,525.114975 205.892778,526.569977 C205.049122,528.024979 205.542491,529.889999 206.994103,530.735031 C210.980245,533.055893 216.106302,531.694321 218.421755,527.699463 L220.864856,523.484421 C221.986366,521.549179 222.28975,519.291992 221.717417,517.128235 C221.145085,514.965073 219.7665,513.154205 217.836361,512.030075 L217.836361,512.030075 Z" id="hospital-3" stroke="#13374F" stroke-width="2" fill="#FFFFFF" fill-rule="nonzero"></path>
        <path d="M203.576419,663 C207.790175,663 211.218341,666.41705 211.218341,670.617143 L211.218341,670.617143 L211.218341,691.069933 C212.063843,690.710252 212.993559,690.510683 213.969432,690.510683 C217.846026,690.510683 221,693.65443 221,697.518454 L221,697.518454 L221,717.612934 C221,721.9966 219.912555,726.361375 217.855044,730.235758 L217.855044,730.235758 L212.569127,740.189079 C212.294934,740.705369 211.765044,741 211.216965,741 C210.975786,741 210.731245,740.943024 210.50321,740.822673 C209.757205,740.429019 209.47262,739.507192 209.867555,738.763455 L209.867555,738.763455 L215.153472,728.810134 C216.978515,725.373431 217.943231,721.501333 217.943231,717.612782 L217.943231,717.612782 L217.943231,697.518606 C217.943231,695.334467 216.160677,693.557692 213.969432,693.557692 C211.778188,693.557692 209.995633,695.334467 209.995633,697.518606 L209.995633,697.518606 L209.995633,710.301391 C209.995633,710.80138 209.749563,711.269377 209.337205,711.553954 L209.337205,711.553954 L207.941638,712.517065 C202.431354,716.319848 199.141659,722.578549 199.141659,729.259088 L199.141659,729.259088 L199.141659,739.476114 C199.141659,740.317352 198.457249,741 197.613275,741 L197.613275,741 L168.117904,741 C163.904148,741 160.475983,737.582493 160.475983,733.3824 L160.475983,733.3824 L160.475983,727.516895 L154.835328,725.78948 C152.541223,725.087179 151,723.007852 151,720.615764 C151,719.034445 151.668668,717.578047 152.846594,716.551409 C151.695568,715.54945 151,714.08513 151,712.47898 C151,710.897661 151.668668,709.441263 152.846594,708.414625 C151.695568,707.412666 151,705.948346 151,704.342195 C151,702.760876 151.668668,701.304479 152.846594,700.27784 C151.695568,699.275881 151,697.811562 151,696.205411 C151,694.470226 151.803013,692.883575 153.203166,691.852366 C154.603166,690.821157 156.360655,690.521956 158.02476,691.031695 L158.02476,691.031695 L160.475983,691.782288 L160.475983,670.617143 C160.475983,666.41705 163.904148,663 168.117904,663 L168.117904,663 Z M196.084891,732.773029 L163.532751,732.773029 L163.532751,733.3824 C163.532751,735.902456 165.589651,737.952686 168.117904,737.952686 L168.117904,737.952686 L196.084891,737.952686 L196.084891,732.773029 Z M203.576266,666.046857 L168.117751,666.046857 C165.589498,666.046857 163.532598,668.097087 163.532598,670.617143 L163.532598,670.617143 L163.532598,692.718588 L165.115087,693.20319 C167.409192,693.905643 168.950415,695.984971 168.950415,698.376906 C168.950415,699.958225 168.281747,701.414623 167.103821,702.441261 C168.254847,703.44322 168.950415,704.907692 168.950415,706.51369 C168.950415,708.095009 168.281747,709.551407 167.103821,710.578045 C168.254847,711.580004 168.950415,713.044476 168.950415,714.650475 C168.950415,716.231794 168.281747,717.688191 167.103821,718.71483 C168.254847,719.716789 168.950415,721.181261 168.950415,722.787259 C168.950415,724.522444 168.147402,726.109095 166.747249,727.140304 C165.795066,727.841538 164.677664,728.204266 163.536725,728.204266 L163.536725,728.204266 L163.532598,728.204114 L163.532598,729.726172 L196.085044,729.726172 L196.085044,729.259088 C196.085044,721.57918 199.867031,714.383875 206.201725,710.011939 L206.201725,710.011939 L206.938865,709.503114 L206.938865,697.518454 C206.938865,696.039967 207.401812,694.667967 208.18893,693.536212 C208.171659,693.444197 208.161572,693.349744 208.161572,693.252854 L208.161572,693.252854 L208.161572,674.273371 L173.083166,674.273371 C172.239192,674.273371 171.554782,673.59118 171.554782,672.749943 C171.554782,671.908706 172.239192,671.226514 173.083166,671.226514 L173.083166,671.226514 L208.161419,671.226514 L208.161419,670.617143 C208.161419,668.097087 206.10452,666.046857 203.576266,666.046857 L203.576266,666.046857 Z M156.423013,718.248204 C155.924301,718.248204 155.435983,718.40664 155.019651,718.713154 C154.407686,719.163937 154.056769,719.857249 154.056769,720.615764 C154.056769,721.661445 154.730328,722.570018 155.732948,722.876837 L155.732948,722.876837 L162.823581,725.048332 C163.550328,725.271057 164.318799,725.140499 164.930764,724.689717 C165.542729,724.238934 165.893799,723.545622 165.893799,722.787107 C165.893799,721.741578 165.22024,720.832853 164.217467,720.525729 L164.217467,720.525729 L161.927031,719.824343 L161.927031,719.824343 L161.925808,719.824038 L157.125306,718.35393 C156.893144,718.28309 156.657009,718.248204 156.423013,718.248204 Z M156.423013,710.111419 C155.924301,710.111419 155.435983,710.269856 155.019651,710.57637 C154.407686,711.027152 154.056769,711.720465 154.056769,712.47898 C154.056769,713.524661 154.730328,714.433234 155.732948,714.740205 L155.732948,714.740205 L160.551638,716.215798 L162.823734,716.911547 C163.550328,717.133816 164.318799,717.003715 164.930764,716.552932 C165.542729,716.10215 165.893799,715.408837 165.893799,714.650322 C165.893799,713.604793 165.22024,712.696068 164.217467,712.388945 L164.217467,712.388945 L161.927031,711.687558 L161.927031,711.687558 L161.925808,711.687254 L157.125306,710.217145 C156.893144,710.146306 156.657009,710.111419 156.423013,710.111419 Z M156.42286,701.974635 C155.924301,701.974635 155.43583,702.133071 155.019498,702.439433 C154.407533,702.890215 154.056616,703.583528 154.056616,704.342043 C154.056616,705.387724 154.730175,706.296297 155.732795,706.603268 L155.732795,706.603268 L160.551485,708.079013 L162.823581,708.774763 C163.550175,708.997488 164.318646,708.86693 164.930611,708.416148 C165.542576,707.965365 165.893646,707.272053 165.893646,706.513538 C165.893646,705.468009 165.220087,704.559284 164.217314,704.252161 L164.217314,704.252161 L161.926878,703.550774 L161.926878,703.550774 L161.925655,703.550469 L157.125153,702.080361 C156.892991,702.009521 156.656856,701.974635 156.42286,701.974635 Z M156.423013,693.837851 C155.924301,693.837851 155.435983,693.996287 155.019651,694.302801 C154.407686,694.753583 154.056769,695.446896 154.056769,696.205259 C154.056769,697.25094 154.730328,698.159513 155.732948,698.466484 L155.732948,698.466484 L160.551638,699.942229 L162.823734,700.637979 C163.550328,700.860247 164.318799,700.729994 164.930764,700.279364 C165.542729,699.828581 165.893799,699.135269 165.893799,698.376754 C165.893799,697.331225 165.22024,696.422499 164.217467,696.115376 L164.217467,696.115376 L157.12714,693.944034 C156.89452,693.872889 156.65762,693.837851 156.423013,693.837851 Z M167.65786,671.226514 C168.059825,671.226514 168.452467,671.389369 168.738275,671.672879 C169.022707,671.956237 169.186245,672.349281 169.186245,672.749943 C169.186245,673.150605 169.022555,673.543649 168.738275,673.826855 C168.452467,674.110365 168.059825,674.273371 167.65786,674.273371 C167.255742,674.273371 166.861572,674.110212 166.577293,673.826855 C166.29286,673.543649 166.129476,673.150605 166.129476,672.749943 C166.129476,672.349281 166.293013,671.956389 166.577293,671.672879 C166.861572,671.389369 167.255742,671.226514 167.65786,671.226514 Z" id="smartphone" stroke="#FFFFFF" fill="#FFFFFF" fill-rule="nonzero"></path>
        <text id="Particle-Customers-D" font-family="Rubik-Medium, Rubik" font-size="18" font-weight="400" letter-spacing="0.694285714" fill="#13374F">
            <tspan x="100.312429" y="170">Particle Customers</tspan>
            <tspan x="132.680286" y="192" font-family="Rubik-Light, Rubik" font-weight="300">Data Seekers</tspan>
        </text>
        <path d="M931.522837,407.5 L945.5,407.5 C955.441125,407.5 963.5,415.558875 963.5,425.5 L963.5,1272.5 C963.5,1282.44113 955.441125,1290.5 945.5,1290.5 L919.5,1290.5 L919.5,1290.5" id="Rectangle" stroke="#E0E4E7" stroke-width="16" transform="translate(941.500000, 849.000000) rotate(90.000000) translate(-941.500000, -849.000000) "></path>
        <text id="Google-Cloud-Platfor" font-family="Rubik-Regular, Rubik" font-size="18" font-weight="normal" letter-spacing="0.694285714" fill="#838891">
            <tspan x="839.178" y="905">Google Cloud Platform</tspan>
        </text>
        <circle id="Oval" fill="#E7900C" cx="654.5" cy="506.5" r="71.5"></circle>
        <circle id="Oval" fill="#E7900C" cx="652.5" cy="312.5" r="71.5"></circle>
        <path d="M681.662507,519.218988 L665.196305,502.752616 C664.526447,502.082747 663.52794,501.883848 662.652735,502.246613 C661.777413,502.609147 661.211958,503.455674 661.211958,504.403033 L661.211958,507.347441 L643.788042,507.347441 L643.788042,503.324765 C643.788042,503.324765 643.788042,502.246613 642.635697,502.246613 C641.483353,502.246613 641.483353,503.324765 641.483353,503.324765 L641.483353,512.597154 C641.483353,512.607295 641.482431,512.612711 641.482661,512.613402 C641.475517,512.621354 641.45489,512.629881 641.44786,512.629881 C641.44763,512.629881 641.454083,512.638754 641.433341,512.617897 L625.781962,496.966131 L641.433341,481.314481 C641.440601,481.307337 641.445095,481.30411 641.445325,481.303534 C641.455927,481.303995 641.477015,481.311716 641.481624,481.316671 C641.481624,481.316671 641.483353,481.322087 641.483353,481.335339 L641.483353,485.431996 C641.483353,486.068447 641.999257,486.584361 642.635697,486.584361 L657.812425,486.584361 C658.448865,486.584361 658.96477,486.068447 658.96477,485.431996 C658.96477,484.795545 658.448865,484.279631 657.812425,484.279631 L643.788042,484.279631 L643.788042,481.335224 C643.788042,480.387865 643.222471,479.541453 642.347265,479.178804 C641.471944,478.81627 640.473668,479.014937 639.803695,479.684807 L623.337493,496.151294 C622.887502,496.601293 622.887502,497.33097 623.337493,497.780969 L639.80381,514.247571 C640.473668,514.917441 641.472175,515.115993 642.347381,514.753459 C643.222587,514.390925 643.788158,513.544513 643.788158,512.597154 L643.788158,509.65217 L661.209884,509.65217 L661.209884,515.211524 C661.209884,515.211524 660.955566,516.717041 662.364187,516.717041 C663.772808,516.717041 663.514573,515.211524 663.514573,515.211524 L663.516647,504.403033 C663.516647,504.392892 663.517569,504.387361 663.517339,504.386785 C663.524483,504.378834 663.54511,504.370306 663.552024,504.370306 C663.55214,504.370306 663.545687,504.361318 663.566659,504.382291 L679.218038,520.033941 L663.566659,535.68559 C663.559515,535.692735 663.554905,535.695962 663.554675,535.696538 C663.543151,535.698958 663.52287,535.688471 663.518261,535.683516 C663.518261,535.683516 663.516532,535.6781 663.516532,535.664848 L663.516532,531.56796 C663.516532,530.931509 663.000627,530.415595 662.364187,530.415595 L642.359365,530.415595 C641.722925,530.415595 641.20702,530.931509 641.20702,531.56796 C641.20702,532.204411 641.722925,532.720325 642.359365,532.720325 L661.211958,532.720325 L661.211958,535.664848 C661.211958,536.612207 661.777529,537.458619 662.652735,537.821153 C662.943241,537.94146 663.247229,538 663.548337,538 C664.15447,538 664.748735,537.762843 665.196305,537.315265 L681.662507,520.848778 C682.112498,520.398664 682.112498,519.668987 681.662507,519.218988 Z" id="transfer" stroke="#FFFFFF" stroke-width="2" fill="#FFFFFF" fill-rule="nonzero"></path>
        <path d="M681.662507,325.218988 L665.196305,308.752616 C664.526447,308.082747 663.52794,307.883848 662.652735,308.246613 C661.777413,308.609147 661.211958,309.455674 661.211958,310.403033 L661.211958,313.347441 L643.788042,313.347441 L643.788042,309.324765 C643.788042,309.324765 643.788042,308.246613 642.635697,308.246613 C641.483353,308.246613 641.483353,309.324765 641.483353,309.324765 L641.483353,318.597154 C641.483353,318.607295 641.482431,318.612711 641.482661,318.613402 C641.475517,318.621354 641.45489,318.629881 641.44786,318.629881 C641.44763,318.629881 641.454083,318.638754 641.433341,318.617897 L625.781962,302.966131 L641.433341,287.314481 C641.440601,287.307337 641.445095,287.30411 641.445325,287.303534 C641.455927,287.303995 641.477015,287.311716 641.481624,287.316671 C641.481624,287.316671 641.483353,287.322087 641.483353,287.335339 L641.483353,291.431996 C641.483353,292.068447 641.999257,292.584361 642.635697,292.584361 L657.812425,292.584361 C658.448865,292.584361 658.96477,292.068447 658.96477,291.431996 C658.96477,290.795545 658.448865,290.279631 657.812425,290.279631 L643.788042,290.279631 L643.788042,287.335224 C643.788042,286.387865 643.222471,285.541453 642.347265,285.178804 C641.471944,284.81627 640.473668,285.014937 639.803695,285.684807 L623.337493,302.151294 C622.887502,302.601293 622.887502,303.33097 623.337493,303.780969 L639.80381,320.247571 C640.473668,320.917441 641.472175,321.115993 642.347381,320.753459 C643.222587,320.390925 643.788158,319.544513 643.788158,318.597154 L643.788158,315.65217 L661.209884,315.65217 L661.209884,321.211524 C661.209884,321.211524 660.955566,322.717041 662.364187,322.717041 C663.772808,322.717041 663.514573,321.211524 663.514573,321.211524 L663.516647,310.403033 C663.516647,310.392892 663.517569,310.387361 663.517339,310.386785 C663.524483,310.378834 663.54511,310.370306 663.552024,310.370306 C663.55214,310.370306 663.545687,310.361318 663.566659,310.382291 L679.218038,326.033941 L663.566659,341.68559 C663.559515,341.692735 663.554905,341.695962 663.554675,341.696538 C663.543151,341.698958 663.52287,341.688471 663.518261,341.683516 C663.518261,341.683516 663.516532,341.6781 663.516532,341.664848 L663.516532,337.56796 C663.516532,336.931509 663.000627,336.415595 662.364187,336.415595 L642.359365,336.415595 C641.722925,336.415595 641.20702,336.931509 641.20702,337.56796 C641.20702,338.204411 641.722925,338.720325 642.359365,338.720325 L661.211958,338.720325 L661.211958,341.664848 C661.211958,342.612207 661.777529,343.458619 662.652735,343.821153 C662.943241,343.94146 663.247229,344 663.548337,344 C664.15447,344 664.748735,343.762843 665.196305,343.315265 L681.662507,326.848778 C682.112498,326.398664 682.112498,325.668987 681.662507,325.218988 Z" id="transfer" stroke="#FFFFFF" stroke-width="2" fill="#FFFFFF" fill-rule="nonzero"></path>
        <text id="Particle-API-Asynchr" font-family="Rubik-Medium, Rubik" font-size="18" font-weight="400" letter-spacing="0.694285714" fill="#E7900C">
            <tspan x="600.263286" y="165">Particle API</tspan>
            <tspan x="592.397286" y="187" font-family="Rubik-Light, Rubik" font-weight="300">Asynchronous</tspan>
        </text>
        <circle id="Oval" fill="#50907C" cx="1725" cy="312.5" r="71.5"></circle>
        <circle id="Oval" fill="#50907C" cx="1725" cy="506.5" r="71.5"></circle>
        <circle id="Oval" fill="#50907C" cx="1725" cy="702.5" r="71.5"></circle>
        <text id="Particle-Network-Dat" font-family="Rubik-Medium, Rubik" font-size="18" font-weight="400" letter-spacing="0.694285714" fill="#50907C">
            <tspan x="1646.53671" y="175">Particle Network</tspan>
            <tspan x="1668.54429" y="197" font-family="Rubik-Light, Rubik" font-weight="300">Data Holders</tspan>
        </text>
        <path d="M1761.70312,305.690265 L1761.70312,288.640118 C1761.70312,284.879761 1758.65382,281.820059 1754.90625,281.820059 L1695.09375,281.820059 C1691.34618,281.820059 1688.29688,284.879761 1688.29688,288.640118 L1688.29688,322.740412 C1688.29688,326.500768 1691.34618,329.56047 1695.09375,329.56047 L1754.90625,329.56047 C1758.65382,329.56047 1761.70312,326.500768 1761.70312,322.740412 C1761.70312,320.856903 1763.22446,319.330382 1765.10156,319.330382 C1766.97867,319.330382 1768.5,320.856903 1768.5,322.740412 C1768.5,330.261791 1762.40206,336.380529 1754.90625,336.380529 L1728.39844,336.380529 L1728.39844,343.179941 L1740.29297,343.179941 C1742.17007,343.179941 1743.69141,344.706462 1743.69141,346.589971 C1743.69141,348.473479 1742.17007,350 1740.29297,350 L1709.70703,350 C1707.82993,350 1706.30859,348.473479 1706.30859,346.589971 C1706.30859,344.706462 1707.82993,343.179941 1709.70703,343.179941 L1721.60156,343.179941 L1721.60156,336.380529 L1695.09375,336.380529 C1687.59794,336.380529 1681.5,330.261791 1681.5,322.740412 L1681.5,288.640118 C1681.5,281.118738 1687.59794,275 1695.09375,275 L1754.90625,275 C1762.40206,275 1768.5,281.118738 1768.5,288.640118 L1768.5,305.690265 C1768.5,307.573773 1766.97867,309.100294 1765.10156,309.100294 C1763.22446,309.100294 1761.70312,307.573773 1761.70312,305.690265 Z M1740.97266,301.598229 C1739.62523,301.598229 1738.40591,302.396789 1737.86229,303.633591 L1734.83622,310.526912 L1726.96605,290.78404 C1726.46292,289.522596 1725.26285,288.681411 1723.90945,288.642116 C1722.55605,288.603486 1721.30885,289.372075 1720.73403,290.60155 L1713.14198,306.836487 L1711.12482,303.31057 C1710.51881,302.251596 1709.39507,301.598229 1708.17773,301.598229 L1698.49219,301.598229 C1696.61508,301.598229 1695.09375,303.12475 1695.09375,305.008259 C1695.09375,306.891767 1696.61508,308.418288 1698.49219,308.418288 L1706.21036,308.418288 L1710.49823,315.913026 C1711.1288,317.015958 1712.32091,317.670657 1713.58537,317.622703 C1714.85181,317.570088 1715.98352,316.815485 1716.52183,315.663935 L1723.5623,300.609188 L1731.53004,320.597155 C1732.03848,321.87192 1733.25913,322.716435 1734.62714,322.739746 C1734.64705,322.740412 1734.6663,322.740412 1734.68621,322.740412 C1736.03098,322.740412 1737.2523,321.943184 1737.79591,320.70505 L1743.18961,308.418288 L1751.50781,308.418288 C1753.38492,308.418288 1754.90625,306.891767 1754.90625,305.008259 C1754.90625,303.12475 1753.38492,301.598229 1751.50781,301.598229 L1740.97266,301.598229 Z" id="pulse" stroke="#50907C" stroke-width="2" fill="#FFFFFF" fill-rule="nonzero"></path>
        <path d="M1761.70312,501.690265 L1761.70312,484.640118 C1761.70312,480.879761 1758.65382,477.820059 1754.90625,477.820059 L1695.09375,477.820059 C1691.34618,477.820059 1688.29688,480.879761 1688.29688,484.640118 L1688.29688,518.740412 C1688.29688,522.500768 1691.34618,525.56047 1695.09375,525.56047 L1754.90625,525.56047 C1758.65382,525.56047 1761.70312,522.500768 1761.70312,518.740412 C1761.70312,516.856903 1763.22446,515.330382 1765.10156,515.330382 C1766.97867,515.330382 1768.5,516.856903 1768.5,518.740412 C1768.5,526.261791 1762.40206,532.380529 1754.90625,532.380529 L1728.39844,532.380529 L1728.39844,539.179941 L1740.29297,539.179941 C1742.17007,539.179941 1743.69141,540.706462 1743.69141,542.589971 C1743.69141,544.473479 1742.17007,546 1740.29297,546 L1709.70703,546 C1707.82993,546 1706.30859,544.473479 1706.30859,542.589971 C1706.30859,540.706462 1707.82993,539.179941 1709.70703,539.179941 L1721.60156,539.179941 L1721.60156,532.380529 L1695.09375,532.380529 C1687.59794,532.380529 1681.5,526.261791 1681.5,518.740412 L1681.5,484.640118 C1681.5,477.118738 1687.59794,471 1695.09375,471 L1754.90625,471 C1762.40206,471 1768.5,477.118738 1768.5,484.640118 L1768.5,501.690265 C1768.5,503.573773 1766.97867,505.100294 1765.10156,505.100294 C1763.22446,505.100294 1761.70312,503.573773 1761.70312,501.690265 Z M1740.97266,497.598229 C1739.62523,497.598229 1738.40591,498.396789 1737.86229,499.633591 L1734.83622,506.526912 L1726.96605,486.78404 C1726.46292,485.522596 1725.26285,484.681411 1723.90945,484.642116 C1722.55605,484.603486 1721.30885,485.372075 1720.73403,486.60155 L1713.14198,502.836487 L1711.12482,499.31057 C1710.51881,498.251596 1709.39507,497.598229 1708.17773,497.598229 L1698.49219,497.598229 C1696.61508,497.598229 1695.09375,499.12475 1695.09375,501.008259 C1695.09375,502.891767 1696.61508,504.418288 1698.49219,504.418288 L1706.21036,504.418288 L1710.49823,511.913026 C1711.1288,513.015958 1712.32091,513.670657 1713.58537,513.622703 C1714.85181,513.570088 1715.98352,512.815485 1716.52183,511.663935 L1723.5623,496.609188 L1731.53004,516.597155 C1732.03848,517.87192 1733.25913,518.716435 1734.62714,518.739746 C1734.64705,518.740412 1734.6663,518.740412 1734.68621,518.740412 C1736.03098,518.740412 1737.2523,517.943184 1737.79591,516.70505 L1743.18961,504.418288 L1751.50781,504.418288 C1753.38492,504.418288 1754.90625,502.891767 1754.90625,501.008259 C1754.90625,499.12475 1753.38492,497.598229 1751.50781,497.598229 L1740.97266,497.598229 Z" id="pulse" stroke="#50907C" stroke-width="2" fill="#FFFFFF" fill-rule="nonzero"></path>
        <path d="M1762.70312,699.690265 L1762.70312,682.640118 C1762.70312,678.879761 1759.65382,675.820059 1755.90625,675.820059 L1696.09375,675.820059 C1692.34618,675.820059 1689.29688,678.879761 1689.29688,682.640118 L1689.29688,716.740412 C1689.29688,720.500768 1692.34618,723.56047 1696.09375,723.56047 L1755.90625,723.56047 C1759.65382,723.56047 1762.70312,720.500768 1762.70312,716.740412 C1762.70312,714.856903 1764.22446,713.330382 1766.10156,713.330382 C1767.97867,713.330382 1769.5,714.856903 1769.5,716.740412 C1769.5,724.261791 1763.40206,730.380529 1755.90625,730.380529 L1729.39844,730.380529 L1729.39844,737.179941 L1741.29297,737.179941 C1743.17007,737.179941 1744.69141,738.706462 1744.69141,740.589971 C1744.69141,742.473479 1743.17007,744 1741.29297,744 L1710.70703,744 C1708.82993,744 1707.30859,742.473479 1707.30859,740.589971 C1707.30859,738.706462 1708.82993,737.179941 1710.70703,737.179941 L1722.60156,737.179941 L1722.60156,730.380529 L1696.09375,730.380529 C1688.59794,730.380529 1682.5,724.261791 1682.5,716.740412 L1682.5,682.640118 C1682.5,675.118738 1688.59794,669 1696.09375,669 L1755.90625,669 C1763.40206,669 1769.5,675.118738 1769.5,682.640118 L1769.5,699.690265 C1769.5,701.573773 1767.97867,703.100294 1766.10156,703.100294 C1764.22446,703.100294 1762.70312,701.573773 1762.70312,699.690265 Z M1741.97266,695.598229 C1740.62523,695.598229 1739.40591,696.396789 1738.86229,697.633591 L1735.83622,704.526912 L1727.96605,684.78404 C1727.46292,683.522596 1726.26285,682.681411 1724.90945,682.642116 C1723.55605,682.603486 1722.30885,683.372075 1721.73403,684.60155 L1714.14198,700.836487 L1712.12482,697.31057 C1711.51881,696.251596 1710.39507,695.598229 1709.17773,695.598229 L1699.49219,695.598229 C1697.61508,695.598229 1696.09375,697.12475 1696.09375,699.008259 C1696.09375,700.891767 1697.61508,702.418288 1699.49219,702.418288 L1707.21036,702.418288 L1711.49823,709.913026 C1712.1288,711.015958 1713.32091,711.670657 1714.58537,711.622703 C1715.85181,711.570088 1716.98352,710.815485 1717.52183,709.663935 L1724.5623,694.609188 L1732.53004,714.597155 C1733.03848,715.87192 1734.25913,716.716435 1735.62714,716.739746 C1735.64705,716.740412 1735.6663,716.740412 1735.68621,716.740412 C1737.03098,716.740412 1738.2523,715.943184 1738.79591,714.70505 L1744.18961,702.418288 L1752.50781,702.418288 C1754.38492,702.418288 1755.90625,700.891767 1755.90625,699.008259 C1755.90625,697.12475 1754.38492,695.598229 1752.50781,695.598229 L1741.97266,695.598229 Z" id="pulse" stroke="#50907C" stroke-width="2" fill="#FFFFFF" fill-rule="nonzero"></path>
        <text id="Queries-API" font-family="Rubik-Medium, Rubik" font-size="14" font-weight="400" letter-spacing="0.54" fill="#E7900C">
            <tspan x="612.911" y="408">Queries API</tspan>
        </text>
        <text id="Files-API" font-family="Rubik-Medium, Rubik" font-size="14" font-weight="400" letter-spacing="0.54" fill="#E7900C">
            <tspan x="623.989" y="601">Files API</tspan>
        </text>
        <path id="Line" d="M513,284 C515.485281,284 517.5,286.014719 517.5,288.5 C517.5,290.985281 515.485281,293 513,293 C510.683966,293 508.776586,291.250342 508.527543,289.000707 L320.5,289 L320.5,288 L508.527432,288.000297 C508.776019,285.750179 510.683621,284 513,284 Z" fill="#13374F" fill-rule="nonzero"></path>
        <text id="POST" font-family="Rubik-Regular, Rubik" font-size="18" font-weight="normal" letter-spacing="0.694285714" fill="#13374F">
            <tspan x="377.201429" y="278">POST</tspan>
        </text>
        <text id="{demographics}" font-family="Rubik-Regular, Rubik" font-size="18" font-weight="normal" letter-spacing="0.694285714" fill="#13374F">
            <tspan x="330.323" y="312">{demographics}</tspan>
        </text>
        <path id="Line" d="M1591.5,307 C1593.98528,307 1596,309.014719 1596,311.5 C1596,313.985281 1593.98528,316 1591.5,316 C1589.18397,316 1587.27659,314.250342 1587.02754,312.000707 L1403.97246,312.000707 C1403.72341,314.250342 1401.81603,316 1399.5,316 C1397.01472,316 1395,313.985281 1395,311.5 C1395,309.014719 1397.01472,307 1399.5,307 C1401.81638,307 1403.72398,308.750179 1403.97257,311.000297 L1587.02743,311.000297 C1587.27602,308.750179 1589.18362,307 1591.5,307 Z" fill="#50907C" fill-rule="nonzero"></path>
        <text id="Document" font-family="Rubik-Regular, Rubik" font-size="18" font-weight="normal" letter-spacing="0.694285714" fill="#50907C">
            <tspan x="1448.95586" y="300">Document</tspan>
        </text>
        <text id="Query" font-family="Rubik-Regular, Rubik" font-size="18" font-weight="normal" letter-spacing="0.694285714" fill="#50907C">
            <tspan x="1468.91529" y="335">Query</tspan>
        </text>
        <path id="Line" d="M1591.5,497 C1593.98528,497 1596,499.014719 1596,501.5 C1596,503.985281 1593.98528,506 1591.5,506 C1589.18397,506 1587.27659,504.250342 1587.02754,502.000707 L1403.97246,502.000707 C1403.72341,504.250342 1401.81603,506 1399.5,506 C1397.01472,506 1395,503.985281 1395,501.5 C1395,499.014719 1397.01472,497 1399.5,497 C1401.81638,497 1403.72398,498.750179 1403.97257,501.000297 L1587.02743,501.000297 C1587.27602,498.750179 1589.18362,497 1591.5,497 Z" fill="#50907C" fill-rule="nonzero"></path>
        <text id="Document" font-family="Rubik-Regular, Rubik" font-size="18" font-weight="normal" letter-spacing="0.694285714" fill="#50907C">
            <tspan x="1448.95586" y="490">Document</tspan>
        </text>
        <text id="Retrieve" font-family="Rubik-Regular, Rubik" font-size="18" font-weight="normal" letter-spacing="0.694285714" fill="#50907C">
            <tspan x="1458.56386" y="525">Retrieve</tspan>
        </text>
        <path id="Line" d="M526.5,354 C528.985281,354 531,356.014719 531,358.5 C531,360.985281 528.985281,363 526.5,363 C524.183966,363 522.276586,361.250342 522.027543,359.000707 L329,359 L329,358 L522.027432,358.000297 C522.276019,355.750179 524.183621,354 526.5,354 Z" fill="#E7900C" fill-rule="nonzero"></path>
        <path id="Line" d="M788.535432,309.500139 C790.851526,309.518376 792.745153,311.283198 792.976301,313.534907 L847.531624,313.964093 C847.798373,311.716489 849.71947,309.981904 852.035432,310.000139 C854.520636,310.019708 856.519429,312.050228 856.499861,314.535432 C856.480292,317.020636 854.449772,319.019429 851.964568,318.999861 C849.648474,318.981624 847.754847,317.216802 847.523699,314.965093 L792.968376,314.535907 C792.701627,316.783511 790.78053,318.518096 788.464568,318.499861 C785.979364,318.480292 783.980571,316.449772 784.000139,313.964568 C784.019708,311.479364 786.050228,309.480571 788.535432,309.500139 Z" fill="#E7900C" fill-rule="nonzero"></path>
        <path id="Line" d="M788.535432,500.500139 C790.851526,500.518376 792.745153,502.283198 792.976301,504.534907 L847.531624,504.964093 C847.798373,502.716489 849.71947,500.981904 852.035432,501.000139 C854.520636,501.019708 856.519429,503.050228 856.499861,505.535432 C856.480292,508.020636 854.449772,510.019429 851.964568,509.999861 C849.648474,509.981624 847.754847,508.216802 847.523699,505.965093 L792.968376,505.535907 C792.701627,507.783511 790.78053,509.518096 788.464568,509.499861 C785.979364,509.480292 783.980571,507.449772 784.000139,504.964568 C784.019708,502.479364 786.050228,500.480571 788.535432,500.500139 Z" fill="#E7900C" fill-rule="nonzero"></path>
        <text id="query_id" font-family="Rubik-Regular, Rubik" font-size="18" font-weight="normal" letter-spacing="0.694285714" fill="#E7900C">
            <tspan x="360.265857" y="348">query_id</tspan>
        </text>
        <path id="Line" d="M512.5,484 C514.985281,484 517,486.014719 517,488.5 C517,490.985281 514.985281,493 512.5,493 C510.183966,493 508.276586,491.250342 508.027543,489.000707 L320,489 L320,488 L508.027432,488.000297 C508.276019,485.750179 510.183621,484 512.5,484 Z" fill="#13374F" fill-rule="nonzero"></path>
        <text id="GET-files" font-family="Rubik-Regular, Rubik" font-size="18" font-weight="normal" letter-spacing="0.694285714" fill="#13374F">
            <tspan x="363.496857" y="478">GET files</tspan>
        </text>
        <text id="{query_id}" font-family="Rubik-Regular, Rubik" font-size="18" font-weight="normal" letter-spacing="0.694285714" fill="#13374F">
            <tspan x="353.172571" y="512">{query_id}</tspan>
        </text>
        <path id="Line" d="M526.477041,557.000059 C528.96229,556.987379 530.987262,558.991792 530.999941,561.477041 C531.012621,563.96229 529.008208,565.987262 526.522959,565.999941 C524.20661,566.01176 522.290103,564.271336 522.030039,562.022515 L330.502551,562.999993 L330.002557,563.002544 L329.997456,562.002557 L330.497449,562.000007 L522.025046,561.022117 C522.262609,558.771241 524.161037,557.011875 526.477041,557.000059 Z" fill="#E7900C" fill-rule="nonzero"></path>
        <text id="Health-data" font-family="Rubik-Regular, Rubik" font-size="18" font-weight="normal" letter-spacing="0.694285714" fill="#E7900C">
            <tspan x="349.144429" y="551">Health data</tspan>
        </text>
        <text id="Networks" font-family="Rubik-Medium, Rubik" font-size="18" font-weight="400" letter-spacing="0.694285714" fill="#50907C">
            <tspan x="1682.70586" y="410">Networks</tspan>
        </text>
        <text id="EMRs" font-family="Rubik-Medium, Rubik" font-size="18" font-weight="400" letter-spacing="0.694285714" fill="#50907C">
            <tspan x="1701.54043" y="601">EMRs</tspan>
        </text>
        <text id="QHINs" font-family="Rubik-Medium, Rubik" font-size="18" font-weight="400" letter-spacing="0.694285714" fill="#50907C">
            <tspan x="1698.78629" y="800">QHINs</tspan>
        </text>
        <circle id="Oval" fill="#E7900C" cx="929.360352" cy="703.005127" r="66"></circle>
        <text id="Metrics-Reporting-An" font-family="Rubik-Medium, Rubik" font-size="12" font-weight="400" letter-spacing="0.462857143" fill="#E7900C">
            <tspan x="906.232" y="796">Metrics</tspan>
            <tspan x="867.658857" y="810">Reporting Analytics</tspan>
        </text>
        <path d="M907.665439,692.515694 C907.665439,692.515694 909.066532,690.928672 909.82372,691.722183 C910.580909,692.515694 909.316304,693.8856 909.316304,693.8856 C902.116923,703.883886 903.423948,717.81234 912.391423,726.357998 C917.152865,730.895539 923.386806,733.378698 929.987904,733.37891 C930.140483,733.379016 930.291988,733.377638 930.444889,733.374986 C937.215436,733.25769 943.534263,730.545135 948.237682,725.736837 C952.82441,721.047956 955.350565,714.877282 955.350995,708.361507 C955.350995,707.775874 955.83205,707.301068 956.425498,707.301068 C957.018945,707.301068 957.5,707.77598 957.5,708.361613 C957.5,715.429826 954.759267,722.12356 949.783676,727.210039 C944.681509,732.425905 937.827043,735.368386 930.482604,735.495652 C930.317239,735.498515 930.15198,735.5 929.986936,735.5 C922.8257,735.5 916.064287,732.806322 910.898831,727.88391 C906.110849,723.321234 903.163489,717.207829 902.59959,710.670101 C902.041708,704.201944 903.840855,697.755528 907.665439,692.515694 Z M930.611111,686.333333 C931.208816,686.333333 931.693321,686.82184 931.693321,687.424236 L931.693321,687.424236 L931.693321,706.187225 L950.306787,706.187225 C950.904384,706.187225 951.388889,706.675732 951.388889,707.278128 C951.388889,717.370292 944.255503,726.030535 934.427199,727.870344 C934.360427,727.88278 934.293871,727.888889 934.228397,727.888889 C933.717053,727.888889 933.262309,727.522018 933.165559,726.996966 C933.056364,726.404606 933.444336,725.835264 934.031976,725.725192 C942.478948,724.143927 948.703494,716.936985 949.19341,708.369032 L949.19341,708.369032 L930.611111,708.369032 C930.013407,708.369032 929.528901,707.880525 929.528901,707.278128 L929.528901,707.278128 L929.528901,688.546449 C919.767261,689.1135 911.997645,697.298546 911.997645,707.278128 C911.997645,716.005354 918.122627,723.709093 926.56159,725.59581 C927.14501,725.726392 927.513177,726.308825 927.383745,726.89704 C927.254313,727.485364 926.676521,727.856489 926.092885,727.725908 C921.550526,726.710277 917.424494,724.134764 914.474714,720.473693 C911.481647,716.75884 909.833333,712.072648 909.833333,707.278128 C909.833333,695.729282 919.154189,686.333333 930.611111,686.333333 Z M936.823904,679 C939.431687,679 941.9857,679.448684 944.415014,680.333497 C944.957849,680.531215 945.237583,681.131691 945.039865,681.674526 C944.842042,682.217361 944.241984,682.497409 943.698836,682.299377 C941.825433,681.616989 939.869073,681.221135 937.869925,681.118824 L937.869925,681.118824 L937.869925,700.12997 L956.881385,700.12997 C956.693083,696.424277 955.503742,692.901134 953.407933,689.844144 C953.407933,689.844144 952.305533,688.334837 953.407933,687.845078 C954.510332,687.35532 955.234364,688.810676 955.234364,688.810676 C957.700816,692.470234 959,696.722737 959,701.176096 C959,701.753767 958.531649,702.222222 957.953874,702.222222 L957.953874,702.222222 L936.823904,702.222222 C936.246128,702.222222 935.777778,701.753872 935.777778,701.176096 L935.777778,701.176096 L935.777778,680.046126 C935.777778,679.468455 936.246128,679 936.823904,679 Z" id="analytics" stroke="#FEFFFF" fill="#FFFFFF" fill-rule="nonzero"></path>
        <path d="M924.835449,726.293945 C927.049561,726.796875 928.872314,727.04834 930.303711,727.04834 C931.735107,727.04834 933.240763,726.922607 934.820679,726.671143" id="Path-4" stroke="#FEFFFF" stroke-width="3.2" fill="#FFFFFF" fill-rule="nonzero" stroke-linecap="round" stroke-linejoin="round"></path>
        <path d="M943.568102,684.124138 C945.410889,684.856678 947.102689,685.244614 948.643502,685.287948 C950.184315,685.331282 952.375807,685.09377 955.217979,684.575413" id="Path-4" stroke="#FEFFFF" stroke-width="3.1" fill="#FFFFFF" fill-rule="nonzero" stroke-linecap="round" stroke-linejoin="round" transform="translate(949.393041, 684.708550) rotate(-145.000000) translate(-949.393041, -684.708550) "></path>
        <circle id="Oval" fill="#E7900C" cx="1126" cy="704" r="66"></circle>
        <text id="non-PHI-Storage" font-family="Rubik-Medium, Rubik" font-size="12" font-weight="400" letter-spacing="0.462857143" fill="#E7900C">
            <tspan x="1075.56657" y="802">non PHI Storage</tspan>
        </text>
        <circle id="Oval" fill="#E7900C" cx="1321.5" cy="704" r="66"></circle>
        <g id="Group-5" transform="translate(1296.000000, 674.000000)">
            <line x1="22" y1="21" x2="38" y2="21" id="Line-2" stroke="#FFFFFF" stroke-width="3" stroke-linecap="round" stroke-linejoin="round"></line>
            <line x1="22" y1="30.3333333" x2="38" y2="30.3333333" id="Line-2" stroke="#FFFFFF" stroke-width="3" stroke-linecap="round" stroke-linejoin="round"></line>
            <line x1="22" y1="39.6666667" x2="38" y2="39.6666667" id="Line-2" stroke="#FFFFFF" stroke-width="3" stroke-linecap="round" stroke-linejoin="round"></line>
            <line x1="22" y1="49" x2="38" y2="49" id="Line-2" stroke="#FFFFFF" stroke-width="3" stroke-linecap="round" stroke-linejoin="round"></line>
            <rect id="Rectangle" stroke="#FFFFFF" stroke-width="3" x="1.5" y="6.5" width="44" height="52" rx="2"></rect>
            <rect id="Rectangle" stroke="#FFFFFF" stroke-width="3" fill="#E7900C" x="11.4238281" y="1.5" width="24.1386719" height="10" rx="2"></rect>
            <text id="ion-checkmark-round---Ionicons" stroke="#FFFFFF" stroke-width="2" font-family="Ionicons" font-size="12" font-weight="400" fill="#FFFFFF">
                <tspan x="7" y="26"></tspan>
            </text>
            <text id="ion-checkmark-round---Ionicons" stroke="#FFFFFF" stroke-width="2" font-family="Ionicons" font-size="12" font-weight="400" fill="#FFFFFF">
                <tspan x="7" y="39"></tspan>
            </text>
            <text id="ion-checkmark-round---Ionicons" stroke="#FFFFFF" stroke-width="2" font-family="Ionicons" font-size="12" font-weight="400" fill="#FFFFFF">
                <tspan x="7" y="53"></tspan>
            </text>
            <rect id="Rectangle" fill="#E7900C" x="6.5" y="4" width="3.42382812" height="5"></rect>
            <rect id="Rectangle" fill="#E7900C" x="37.0625" y="4" width="3.42382812" height="5"></rect>
            <line x1="2.43496094" y1="6.5" x2="6.5" y2="6.5" id="Line-2" stroke="#FFFFFF" stroke-width="3" stroke-linecap="round" stroke-linejoin="round"></line>
            <line x1="40.4349609" y1="6.5" x2="44.5" y2="6.5" id="Line-2" stroke="#FFFFFF" stroke-width="3" stroke-linecap="round" stroke-linejoin="round"></line>
        </g>
        <text id="Logging-Auditing" font-family="Rubik-Medium, Rubik" font-size="12" font-weight="400" letter-spacing="0.462857143" fill="#E7900C">
            <tspan x="1296.806" y="796">Logging </tspan>
            <tspan x="1295.28457" y="810">Auditing</tspan>
        </text>
        <g filter="url(#filter-1)" id="black_servers-48">
            <g transform="translate(1093.000000, 685.000000)">
                <path d="M50,0 C50.5292729,0 50.9625089,0.411182929 50.997693,0.931533862 L51,1 L51,17 C51,17.5522847 50.5522847,18 50,18 C49.4707271,18 49.0374911,17.5888171 49.002307,17.0684661 L49,17 L49,1 C49,0.44771525 49.4477153,0 50,0 Z" id="Shape" stroke="#FFFFFF" stroke-width="0.75" fill="#FFFFFF" fill-rule="nonzero"></path>
                <path d="M50,25 C50.5292729,25 50.9625089,25.4111829 50.997693,25.9315339 L51,26 L51,42 C51,42.5522847 50.5522847,43 50,43 C49.4707271,43 49.0374911,42.5888171 49.002307,42.0684661 L49,42 L49,26 C49,25.4477153 49.4477153,25 50,25 Z" id="Shape" stroke="#FFFFFF" stroke-width="0.75" fill="#FFFFFF" fill-rule="nonzero"></path>
                <path d="M64.9578971,5 C65.5094539,5 65.9609304,5.43905974 65.9975958,5.9946887 L66,6.06779661 L66,13.6532286 C65.9049991,16.5739225 63.6474091,18.9119801 60.8465422,18.997621 L60.7105992,19 L5.28954754,19 C5.24474781,19 5.19999471,18.9970399 5.1555668,18.9911381 C2.51656761,18.6405733 0.422761433,16.5137222 0.0122692702,13.7802708 C-0.0752620424,13.1974031 0.314917745,12.6521879 0.883760217,12.5624985 C1.45260269,12.472809 1.98469877,12.8726089 2.07223009,13.4554765 C2.33611191,15.2126554 3.6466889,16.5793717 5.30181665,16.8550541 L5.36535586,16.8644068 L60.706067,16.8644169 C62.3981412,16.8568764 63.7965552,15.4728017 63.9102133,13.7319058 L63.9157941,13.6178737 L63.9157941,6.06779661 C63.9157941,5.47806883 64.3823595,5 64.9578971,5 Z" id="Shape" stroke="#FFFFFF" stroke-width="0.75" fill="#FFFFFF" fill-rule="nonzero"></path>
                <path d="M5.29219967,2.07507634 C3.63194441,2.33080395 2.33045008,3.58274312 2.07104654,5.17549966 C1.97933681,5.73860407 1.44438749,6.12140957 0.876203785,6.03051968 C0.308020083,5.93962979 -0.0782383887,5.40946267 0.0134713425,4.84635826 C0.428392744,2.29871074 2.53015726,0.330136992 5.16173157,0.00779886645 L5.22552288,0.00195156045 L5.28955619,0 L60.7332723,0.000244456962 C63.50349,0.0599895181 65.7754036,2.14637374 65.9895345,4.82163913 L65.998519,4.95588648 L66,5.01092896 L66,12.9672131 C66,13.5376056 65.5334347,14 64.9578972,14 C64.4063404,14 63.954864,13.5753357 63.9181986,13.037924 L63.9157944,12.9672131 L63.9157944,5.04642623 L63.9094194,4.95655078 C63.7692207,3.39559011 62.4492148,2.15929791 60.8244398,2.06993702 L60.7106,2.06557377 L5.35980662,2.06557377 L5.29219967,2.07507634 Z" id="Shape" stroke="#FFFFFF" stroke-width="0.75" fill="#FFFFFF" fill-rule="nonzero"></path>
                <path d="M64.9578972,29 C65.5094539,29 65.9609304,29.4544653 65.9975958,30.0295901 L66,30.1052632 L66,37.6076555 L65.9985394,37.6661527 C65.8537079,40.5644277 63.6261583,42.8579587 60.8498647,42.9949545 L60.7105998,43 L5.28955492,43 C5.24652971,43 5.2035458,42.9971739 5.16085,42.991538 C2.52820003,42.6440254 0.427548414,40.5236972 0.0132891305,37.7825827 C-0.0777997366,37.1798563 0.309043011,36.6129324 0.87732659,36.5163228 C1.44561017,36.4197131 1.98013715,36.8300019 2.07122602,37.4327283 C2.33127554,39.1534514 3.63384497,40.5037886 5.29315352,40.7792987 L5.36212113,40.7894737 L60.6877691,40.789739 C62.3858814,40.7502718 63.7669552,39.3926649 63.9095907,37.6648818 L63.9157944,37.5694737 L63.9157944,30.1052632 C63.9157944,29.5202773 64.3442893,29.0414376 64.8865484,29.0025499 L64.9578972,29 Z" id="Shape" stroke="#FFFFFF" stroke-width="0.75" fill="#FFFFFF" fill-rule="nonzero"></path>
                <path d="M60.679001,24.0024246 C62.0781351,23.958787 63.4339547,24.5057523 64.4366038,25.5173184 C65.3982187,26.4874853 65.9560218,27.8057567 65.9975073,29.1917987 L66,29.3584311 L66,37.9285722 C66,38.5203059 65.5334346,39 64.9578971,39 C64.4063403,39 63.9548638,38.5594476 63.9181983,38.0019288 L63.9157942,37.9285722 L63.9157942,29.3584311 C63.9157942,28.4859815 63.5767117,27.6520045 62.9768381,27.046796 C62.410379,26.4752992 61.6571642,26.1533856 60.8462614,26.1435313 L60.710599,26.1447891 L5.36118927,26.1447627 L5.30037271,26.1541771 C3.68424656,26.4214202 2.39902127,27.7182291 2.09308547,29.3964411 L2.07198659,29.523012 C1.98357891,30.1077228 1.45088229,30.5080392 0.882175375,30.4171436 C0.313468463,30.3262481 -0.0758909991,29.7785609 0.0125166763,29.1938501 C0.423932395,26.4728283 2.51950028,24.3586237 5.15690619,24.0106466 L5.22309249,24.0041128 L5.28954933,24.0019319 L60.679001,24.0024246 Z" id="Shape" stroke="#FFFFFF" stroke-width="0.75" fill="#FFFFFF" fill-rule="nonzero"></path>
                <path d="M11.4997496,12.5976425 C12.9343879,11.7693536 13.4259313,9.93488874 12.5976425,8.50025042 C11.7693536,7.0656121 9.93488874,6.57406871 8.50025042,7.40235753 C7.0656121,8.23064635 6.57406871,10.0651113 7.40235753,11.4997496 C8.23064635,12.9343879 10.0651113,13.4259313 11.4997496,12.5976425 Z" id="Oval" stroke="#FFFFFF" fill="#FFFFFF" fill-rule="nonzero"></path>
                <path d="M11.4997496,35.5976425 C12.9343879,34.7693536 13.4259313,32.9348887 12.5976425,31.5002504 C11.7693536,30.0656121 9.93488874,29.5740687 8.50025042,30.4023575 C7.0656121,31.2306464 6.57406871,33.0651113 7.40235753,34.4997496 C8.23064635,35.9343879 10.0651113,36.4259313 11.4997496,35.5976425 Z" id="Oval" stroke="#FFFFFF" fill="#FFFFFF" fill-rule="nonzero"></path>
            </g>
        </g>
        <circle id="Oval" fill="#E7900C" cx="929.5" cy="318" r="66"></circle>
        <text id="Record-Locator-Servi" font-family="Rubik-Medium, Rubik" font-size="12" font-weight="400" letter-spacing="0.462857143" fill="#E7900C">
            <tspan x="884.228" y="404">Record Locator </tspan>
            <tspan x="908.498" y="418">Service</tspan>
        </text>
        <circle id="Oval" fill="#E7900C" cx="929.5" cy="512" r="66"></circle>
        <text id="Parse-Aggregate" font-family="Rubik-Medium, Rubik" font-size="12" font-weight="400" letter-spacing="0.462857143" fill="#E7900C">
            <tspan x="911.456857" y="595">Parse </tspan>
            <tspan x="896.203143" y="609">Aggregate</tspan>
        </text>
        <circle id="Oval" fill="#E7900C" cx="1321.5" cy="512" r="66"></circle>
        <text id="Responding-Gateway" font-family="Rubik-Medium, Rubik" font-size="12" font-weight="400" letter-spacing="0.462857143" fill="#E7900C">
            <tspan x="1285.37771" y="595">Responding </tspan>
            <tspan x="1294.994" y="609">Gateway</tspan>
        </text>
        <ellipse id="Oval" fill="#E7900C" cx="1125.5" cy="408" rx="66.5" ry="66"></ellipse>
        <text id="Coordinate" font-family="Rubik-Medium, Rubik" font-size="12" font-weight="400" letter-spacing="0.462857143" fill="#E7900C">
            <tspan x="1093.45371" y="491">Coordinate</tspan>
        </text>
        <circle id="Oval" fill="#E7900C" cx="1321.5" cy="319" r="66"></circle>
        <text id="Initiating-Gateway" font-family="Rubik-Medium, Rubik" font-size="12" font-weight="400" letter-spacing="0.462857143" fill="#E7900C">
            <tspan x="1295.27971" y="403">Initiating </tspan>
            <tspan x="1296.994" y="417">Gateway</tspan>
        </text>
        <path id="Path-2" d="M1010.34355,312.500707 C1010.09451,314.750342 1008.18713,316.5 1005.87109,316.5 C1003.38581,316.5 1001.37109,314.485281 1001.37109,312 C1001.37109,309.514719 1003.38581,307.5 1005.87109,307.5 C1008.18747,307.5 1010.09508,309.250179 1010.34366,311.500297 L1025.87109,311.5 L1025.871,407.5 L1040.39853,407.500297 C1040.64711,405.250179 1042.55471,403.5 1044.87109,403.5 C1047.35638,403.5 1049.37109,405.514719 1049.37109,408 C1049.37109,410.485281 1047.35638,412.5 1044.87109,412.5 C1042.55506,412.5 1040.64768,410.750342 1040.39864,408.500707 L1024.87109,408.5 L1024.871,312.5 Z" fill="#E7900C" fill-rule="nonzero"></path>
        <path id="Path-2" d="M1010.34355,408.500707 C1010.09451,410.750342 1008.18713,412.5 1005.87109,412.5 C1003.38581,412.5 1001.37109,410.485281 1001.37109,408 C1001.37109,405.514719 1003.38581,403.5 1005.87109,403.5 C1008.18747,403.5 1010.09508,405.250179 1010.34366,407.500297 L1025.87109,407.5 L1025.871,506.5 L1040.39853,506.500297 C1040.64711,504.250179 1042.55471,502.5 1044.87109,502.5 C1047.35638,502.5 1049.37109,504.514719 1049.37109,507 C1049.37109,509.485281 1047.35638,511.5 1044.87109,511.5 C1042.55506,511.5 1040.64768,509.750342 1040.39864,507.500707 L1024.87109,507.5 L1024.871,408.5 Z" fill="#E7900C" fill-rule="nonzero"></path>
        <path id="Path-2" d="M1208.34355,311.500707 C1208.09451,313.750342 1206.18713,315.5 1203.87109,315.5 C1201.38581,315.5 1199.37109,313.485281 1199.37109,311 C1199.37109,308.514719 1201.38581,306.5 1203.87109,306.5 C1206.18747,306.5 1208.09508,308.250179 1208.34366,310.500297 L1223.87109,310.5 L1223.871,407.5 L1238.39853,407.500297 C1238.64711,405.250179 1240.55471,403.5 1242.87109,403.5 C1245.35638,403.5 1247.37109,405.514719 1247.37109,408 C1247.37109,410.485281 1245.35638,412.5 1242.87109,412.5 C1240.55506,412.5 1238.64768,410.750342 1238.39864,408.500707 L1222.87109,408.5 L1222.871,311.5 Z" fill="#E7900C" fill-rule="nonzero"></path>
        <path id="Path-2" d="M1208.34355,408.500707 C1208.09451,410.750342 1206.18713,412.5 1203.87109,412.5 C1201.38581,412.5 1199.37109,410.485281 1199.37109,408 C1199.37109,405.514719 1201.38581,403.5 1203.87109,403.5 C1206.18747,403.5 1208.09508,405.250179 1208.34366,407.500297 L1223.87109,407.5 L1223.871,501.5 L1238.39853,501.500297 C1238.64711,499.250179 1240.55471,497.5 1242.87109,497.5 C1245.35638,497.5 1247.37109,499.514719 1247.37109,502 C1247.37109,504.485281 1245.35638,506.5 1242.87109,506.5 C1240.55506,506.5 1238.64768,504.750342 1238.39864,502.500707 L1222.87109,502.5 L1222.871,408.5 Z" fill="#E7900C" fill-rule="nonzero"></path>
        <path d="M929.500066,284 C936.526944,284 942.74021,287.523774 946.445723,292.884811 L946.445723,292.884811 L947.980728,295.501208 C949.121179,297.82736 949.828478,300.399657 950,303.114068 L950,303.114068 L949.998156,305.730073 C949.822945,308.432314 949.1167,310.993227 947.98086,313.309956 L947.98086,313.309956 L946.445591,315.926092 C943.63181,319.99725 939.371815,323.007664 934.407287,324.22099 L934.407287,324.22099 L934.407287,346.125367 C934.407287,348.813213 932.205822,351 929.499934,351 C926.794046,351 924.592581,348.813213 924.592581,346.125367 L924.592581,346.125367 L924.592581,324.220466 C919.628185,323.007141 915.368058,319.996727 912.554277,315.925569 L912.554277,315.925569 L911.019404,313.309564 C909.883432,310.992834 909.177319,308.431921 909.002108,305.72968 L909.002108,305.72968 L909,303.113806 C909.171522,300.399396 909.878821,297.827098 911.019272,295.500946 L911.019272,295.500946 L912.554277,292.884942 C916.25979,287.523774 922.473188,284 929.500066,284 Z M932,325 C931.178737,325.083224 930.345017,325.127354 929.5,325.127354 C928.654983,325.127354 927.821263,325.083091 927,325 L927,325 L927,346.71267 C927,347.973882 928.121524,349 929.5,349 C930.878476,349 932,347.973882 932,346.71267 L932,346.71267 Z M929.5,287 C919.850425,287 912,294.850425 912,304.5 C912,314.149575 919.850554,322 929.5,322 C939.149446,322 947,314.149575 947,304.5 C947,294.850425 939.149575,287 929.5,287 Z M941.235724,297.088311 C941.91574,296.828092 942.679438,297.162416 942.942363,297.835377 C945.185017,303.575348 943.794891,310.095583 939.400921,314.446631 C936.441426,317.37713 932.506652,318.994249 928.321228,319 L928.321228,319 C927.591452,319 927.001057,318.416305 927,317.695378 C926.998945,316.973797 927.588812,316.388142 928.317532,316.387097 C931.799182,316.382261 935.072815,315.036992 937.534837,312.598962 C941.190715,308.979034 942.347217,303.554175 940.481265,298.778229 C940.21834,298.105268 940.556236,297.34866 941.235724,297.088311 Z" id="access" stroke="#FFFFFF" stroke-width="0.5" fill="#FFFFFF" fill-rule="nonzero"></path>
        <g id="Group-3" transform="translate(903.000000, 483.000000)" stroke="#FFFFFF" stroke-width="3">
            <rect id="Rectangle" x="1.5" y="7.44736842" width="18.8070175" height="18.8070175" rx="1"></rect>
            <rect id="Rectangle" x="1.5" y="37.1842105" width="18.8070175" height="18.8070175" rx="1"></rect>
            <rect id="Rectangle" x="30.245614" y="37.1842105" width="18.8070175" height="18.8070175" rx="1"></rect>
            <path d="M30.4724741,6.86884105 L49.6583731,6.90690527 L49.6964448,26.0927964 L30.5105458,26.0547322 L30.4724741,6.86884105 Z" id="Rectangle" transform="translate(40.084459, 16.480819) rotate(45.000000) translate(-40.084459, -16.480819) "></path>
        </g>
        <g id="Group-4" transform="translate(936.000000, 498.000000)" stroke="#FFFFFF" stroke-linecap="round" stroke-linejoin="round" stroke-width="3">
            <line x1="0.5" y1="0.5" x2="7.5" y2="7.5" id="Line-2"></line>
            <line x1="13.5302824" y1="1.5" x2="7.5" y2="7.49510253" id="Line-2"></line>
        </g>
        <g id="Group-9" transform="translate(1089.000000, 380.000000)">
            <g id="noun_organization_2404506" transform="translate(0.000000, 5.744681)" fill="#FFFFFF" fill-rule="nonzero" stroke="#E7900C" stroke-width="2">
                <path d="M63.6152277,35.301381 C62.399166,35.301381 61.335112,35.5301156 60.271058,35.9875849 L45.5263099,18.9087311 C46.9703832,16.9263641 47.8824294,14.4865278 47.8824294,11.8942018 C47.8824294,5.33714183 42.5621595,0 36.0258279,0 C29.4894962,0 24.1692263,5.33714183 24.1692263,11.8942018 C24.1692263,14.5627727 25.0812726,16.9263641 26.5253458,18.9087311 L11.8566016,36.0638298 C10.7925476,35.6063605 9.65248974,35.3776258 8.5124319,35.3776258 C3.80019281,35.3776258 0,39.18987 0,43.9170528 C0,48.6442355 3.80019281,52.4564797 8.5124319,52.4564797 C13.224671,52.4564797 17.0248638,48.6442355 17.0248638,43.9170528 C17.0248638,42.3159102 16.5688407,40.7910126 15.7327982,39.4948495 L30.5535502,22.3397508 C31.4655965,22.873465 32.4536466,23.2546894 33.5177006,23.483424 L33.5177006,35.7588503 C30.0975271,36.8262786 27.5893998,40.0285637 27.5893998,43.8408079 C27.5893998,48.5679906 31.3895926,52.3802348 36.1018317,52.3802348 C40.8140708,52.3802348 44.6142636,48.5679906 44.6142636,43.8408079 C44.6142636,40.0285637 42.1061364,36.8262786 38.6859628,35.7588503 L38.6859628,23.483424 C39.7500168,23.2546894 40.7380669,22.873465 41.6501132,22.3397508 L56.3948613,39.4186047 C55.6348228,40.7147677 55.1027958,42.2396653 55.1027958,43.8408079 C55.1027958,48.5679906 58.9029886,52.3802348 63.6152277,52.3802348 C68.3274668,52.3802348 72.1276596,48.5679906 72.1276596,43.8408079 C72.1276596,39.18987 68.3274668,35.301381 63.6152277,35.301381 Z M36.0258279,5.18465206 C39.674013,5.18465206 42.7141672,8.15820251 42.7141672,11.8942018 C42.7141672,15.6302011 39.7500168,18.6037515 36.0258279,18.6037515 C32.3016389,18.6037515 29.3374885,15.6302011 29.3374885,11.8942018 C29.3374885,8.15820251 32.3776428,5.18465206 36.0258279,5.18465206 Z M8.43642804,47.2718276 C6.61233549,47.2718276 5.09225837,45.74693 5.09225837,43.9170528 C5.09225837,42.0871756 6.61233549,40.5622779 8.43642804,40.5622779 C10.2605206,40.5622779 11.7805977,42.0871756 11.7805977,43.9170528 C11.7805977,45.74693 10.2605206,47.2718276 8.43642804,47.2718276 Z M36.0258279,47.2718276 C34.2017353,47.2718276 32.6816582,45.74693 32.6816582,43.9170528 C32.6816582,42.0871756 34.2017353,40.5622779 36.0258279,40.5622779 C37.8499204,40.5622779 39.3699975,42.0871756 39.3699975,43.9170528 C39.3699975,45.74693 37.9259243,47.2718276 36.0258279,47.2718276 Z M63.6152277,47.2718276 C61.7911351,47.2718276 60.271058,45.74693 60.271058,43.9170528 C60.271058,42.0871756 61.7911351,40.5622779 63.6152277,40.5622779 C65.4393202,40.5622779 66.9593973,42.0871756 66.9593973,43.9170528 C66.9593973,45.74693 65.4393202,47.2718276 63.6152277,47.2718276 Z" id="Shape"></path>
            </g>
            <circle id="Oval" stroke="#E7900C" stroke-width="5" cx="36.2446809" cy="17.5531915" r="9.30851064"></circle>
            <circle id="Oval" stroke="#FFFFFF" stroke-width="3.1" cx="35.7446809" cy="11.8085106" r="10.2585106"></circle>
            <line x1="28.2880801" y1="26.7150046" x2="13.2448367" y2="44.1307555" id="Path-8" stroke="#FFFFFF" stroke-width="3.2" stroke-linecap="round"></line>
            <line x1="58.9263779" y1="26.7150046" x2="43.8831346" y2="44.1307555" id="Path-8-Copy" stroke="#FFFFFF" stroke-width="3.2" stroke-linecap="round" transform="translate(51.404756, 35.422880) scale(-1, 1) translate(-51.404756, -35.422880) "></line>
            <line x1="36.1522177" y1="29.737419" x2="36.1522177" y2="43.0239021" id="Path-8-Copy" stroke="#FFFFFF" stroke-width="3.2" stroke-linecap="round"></line>
        </g>
        <g id="Group-7" transform="translate(1296.000000, 286.000000)" stroke="#FFFFFF" stroke-linecap="round" stroke-linejoin="round" stroke-width="3.1">
            <g id="Group-6" transform="translate(11.812500, 6.702193)">
                <polyline id="Path-5" points="0.123046875 0 26.7011719 0 26.7011719 23.9352868 26.3432173 47.8705737 0.123046875 47.8705737"></polyline>
                <polyline id="Path-6" points="46.7193608 23.9352868 24.2713898 23.9352868 0 23.9352868"></polyline>
            </g>
            <polyline id="Path-7" points="55.8349228 23.4126954 62.2900772 30.3195824 55.8349228 38.6567292"></polyline>
            <polyline id="Path-7" points="0 3.08737411e-14 6.45515442 6.07336471 0 13.4043855"></polyline>
            <polyline id="Path-7" points="0 24.3325195 6.45515442 30.4058842 0 37.7369051"></polyline>
            <polyline id="Path-7" points="0 48.6650391 6.45515442 54.7384038 0 62.0694246"></polyline>
        </g>
        <g id="Group-7" transform="translate(1296.000000, 480.741228)" stroke="#FFFFFF" stroke-linecap="round" stroke-linejoin="round" stroke-width="3.1">
            <g id="Group-6" transform="translate(11.812500, 6.702193)">
                <polyline id="Path-5" points="0.123046875 0 26.7011719 0 26.7011719 23.9352868 26.3432173 47.8705737 0.123046875 47.8705737"></polyline>
                <polyline id="Path-6" points="46.7193608 23.9352868 24.2713898 23.9352868 0 23.9352868"></polyline>
            </g>
            <polyline id="Path-7" points="55.8349228 23.4126954 62.2900772 30.3195824 55.8349228 38.6567292"></polyline>
            <polyline id="Path-7" points="0 3.08737411e-14 6.45515442 6.07336471 0 13.4043855"></polyline>
            <polyline id="Path-7" points="0 24.3325195 6.45515442 30.4058842 0 37.7369051"></polyline>
            <polyline id="Path-7" points="0 48.6650391 6.45515442 54.7384038 0 62.0694246"></polyline>
        </g>
    </g>
</svg>